#!OML:ASF F:\twosubjects\two\Thursday\Session 1\Rory.ASF
:FULLY-SPECIFIED
:DEGREES
320
root 13.4501 18.4853 8.31312 -152.165 -80.9308 157.209
lowerback 3.22679 -0.399657 -0.83345
upperback 0.322936 -0.574224 -0.404063
thorax -1.47334 -0.285128 0.078746
lowerneck -14.9446 1.51065 1.33228
upperneck 6.46332 2.17815 -4.43579
head 4.4207 0.809626 -1.41791
rclavicle 4.32357e-015 3.18055e-015
rhumerus -37.5553 -41.4441 -57.3487
rradius 35.9971
rwrist -2.76539
rhand -34.9414 28.7363
rfingers 7.12502
rthumb -8.08821 -1.08893
lclavicle 4.32357e-015 3.18055e-015
lhumerus -39.2016 23.7584 63.3226
lradius 47.0472
lwrist 7.7809
lhand -15.1519 36.7138
lfingers 7.12502
lthumb 11.0182 66.4046
rfemur -20.2621 8.56124 16.9356
rtibia 52.2912
rfoot -7.6672 6.58394
rtoes -14.0053
lfemur -17.1697 5.32954 -24.2943
ltibia 48.5423
lfoot -5.66588 -12.4086
ltoes 3.14498
321
root 13.3799 18.7516 8.31014 -153.311 -80.8619 158.502
lowerback 2.57659 -0.481318 -0.869094
upperback 0.157728 -0.671138 -0.134805
thorax -1.274 -0.331748 0.373412
lowerneck -15.2189 1.69158 1.33702
upperneck 7.09636 2.48433 -4.81245
head 4.67666 0.922971 -1.50944
rclavicle -6.75868e-015 9.14409e-015
rhumerus -37.5535 -41.7787 -55.2936
rradius 36.8636
rwrist -3.93581
rhand -35.2802 28.7767
rfingers 7.12502
rthumb -8.41517 -1.03561
lclavicle -6.75868e-015 9.14409e-015
lhumerus -39.5293 24.4023 61.3403
lradius 47.2228
lwrist 7.78826
lhand -15.017 36.6093
lfingers 7.12502
lthumb 11.1483 66.2932
rfemur -19.6514 8.9783 16.7117
rtibia 50.0128
rfoot -3.11965 7.10591
rtoes -13.7194
lfemur -16.4732 5.19588 -23.7461
ltibia 46.2272
lfoot -0.785974 -12.8043
ltoes 2.65456
322
root 13.3113 19.0038 8.30805 -154.386 -80.8164 159.973
lowerback 1.69193 -0.497337 -0.749724
upperback -0.0686413 -0.677695 0.0801591
thorax -1.00871 -0.334756 0.519317
lowerneck -15.5005 1.79779 1.22637
upperneck 7.76569 2.68357 -4.8445
head 4.93625 1.00197 -1.48302
rclavicle 9.93923e-017 -4.37326e-015
rhumerus -37.4132 -42.1551 -53.2473
rradius 37.4051
rwrist -4.80015
rhand -35.4697 29.6269
rfingers 7.12502
rthumb -8.59803 -0.177987
lclavicle 9.93923e-017 -4.37326e-015
lhumerus -39.7215 24.5878 59.4893
lradius 47.5904
lwrist 8.25156
lhand -14.8278 36.7814
lfingers 7.12502
lthumb 11.3309 66.4553
rfemur -19.4104 9.281 16.4442
rtibia 47.7776
rfoot 1.78463 7.25047
rtoes -9.02622
lfemur -16.1544 5.16081 -23.1224
ltibia 43.9981
lfoot 4.28002 -12.8234
ltoes 5.8974
323
root 13.2393 19.2501 8.31286 -153.468 -80.7171 159.434
lowerback 0.72182 -0.434822 -0.834143
upperback -0.242244 -0.587252 0.120232
thorax -0.642684 -0.289988 0.59781
lowerneck -15.5515 1.77536 1.14023
upperneck 7.95349 2.67323 -4.78321
head 5.00077 0.995293 -1.45052
rclavicle -9.64106e-015 3.97569e-016
rhumerus -37.4959 -42.6989 -51.0114
rradius 38.1094
rwrist -5.65494
rhand -35.2165 29.9662
rfingers 7.12502
rthumb -8.35375 0.151407
lclavicle -9.64106e-015 3.97569e-016
lhumerus -39.5886 24.3885 57.787
lradius 48.0373
lwrist 8.90459
lhand -15.0291 36.4028
lfingers 7.12502
lthumb 11.1367 66.0873
rfemur -19.2299 9.27829 15.7811
rtibia 45.6351
rfoot 6.86304 6.81991
rtoes -2.99451
lfemur -15.9455 5.20243 -22.8941
ltibia 41.8587
lfoot 9.42314 -12.2779
ltoes 9.49604
324
root 13.1709 19.4959 8.32434 -152.371 -80.5425 158.641
lowerback -0.198039 -0.342064 -0.979238
upperback -0.30601 -0.455985 0.0898827
thorax -0.193702 -0.226091 0.640509
lowerneck -15.7531 1.85565 1.28813
upperneck 8.15164 2.76459 -4.82366
head 5.10076 1.03651 -1.47789
rclavicle -1.89839e-014 3.97569e-016
rhumerus -37.4036 -43.5215 -48.822
rradius 38.8717
rwrist -6.51469
rhand -35.4865 29.1961
rfingers 7.12502
rthumb -8.61425 -0.608207
lclavicle -1.89839e-014 3.97569e-016
lhumerus -39.123 24.4894 55.9521
lradius 48.3534
lwrist 9.04611
lhand -14.9791 35.6137
lfingers 7.12502
lthumb 11.1849 65.2955
rfemur -19.0409 9.31779 15.0472
rtibia 43.6515
rfoot 11.4742 5.91319
rtoes 0.548996
lfemur -15.7792 5.39172 -22.7403
ltibia 39.7879
lfoot 14.9127 -10.9869
ltoes 13.7123
325
root 13.1031 19.7312 8.3298 -151.536 -80.3773 157.974
lowerback -0.90241 -0.255355 -1.15986
upperback -0.346887 -0.332062 0.0604691
thorax 0.157706 -0.165971 0.708409
lowerneck -16.2621 2.04663 1.5833
upperneck 8.81675 3.00444 -4.95359
head 5.40635 1.13789 -1.54156
rclavicle -4.22417e-015 9.93923e-015
rhumerus -37.0209 -44.0929 -46.7937
rradius 39.3166
rwrist -7.51433
rhand -36.1808 28.1489
rfingers 7.12502
rthumb -9.28424 -1.62667
lclavicle -4.22417e-015 9.93923e-015
lhumerus -38.6651 24.6042 54.0526
lradius 48.8349
lwrist 8.91446
lhand -14.2806 35.5606
lfingers 7.12502
lthumb 11.8586 65.2048
rfemur -18.8525 9.68453 14.3483
rtibia 41.8735
rfoot 15.3199 4.71233
rtoes 4.03526
lfemur -15.486 5.76678 -22.4982
ltibia 37.826
lfoot 19.5789 -9.48145
ltoes 17.2897
326
root 13.0407 19.9559 8.32993 -150.515 -80.2675 156.962
lowerback -1.20524 -0.159935 -1.31488
upperback -0.511449 -0.20136 -0.0436884
thorax 0.156373 -0.100425 0.689478
lowerneck -16.8313 2.06872 1.78833
upperneck 9.8275 3.02626 -4.89491
head 5.82119 1.13995 -1.55095
rclavicle 4.17448e-015 -1.03368e-014
rhumerus -37.1145 -44.2117 -44.7199
rradius 40.0289
rwrist -8.71764
rhand -36.0923 27.458
rfingers 7.12502
rthumb -9.19882 -2.32132
lclavicle 4.17448e-015 -1.03368e-014
lhumerus -38.2795 23.9116 52.2174
lradius 49.533
lwrist 9.24961
lhand -14.0507 35.7119
lfingers 7.12502
lthumb 12.0802 65.3432
rfemur -18.6435 10.324 13.6654
rtibia 40.3623
rfoot 18.2212 3.58769
rtoes 5.46855
lfemur -15.0412 5.8141 -22.2388
ltibia 36.0723
lfoot 22.4761 -8.1038
ltoes 16.8781
